<?xml version="1.0" encoding="UTF-8"?>
<svg id="Layer_2" data-name="Layer 2" xmlns="http://www.w3.org/2000/svg" viewBox="0 0 129.07 146.27">
  <defs>
    <style>
      .cls-1, .cls-2 {
        fill: #231f20;
      }

      .cls-1, .cls-3, .cls-4 {
        stroke-width: 0px;
      }

      .cls-2 {
        stroke-width: .65px;
      }

      .cls-2, .cls-5, .cls-6 {
        stroke: #231f20;
        stroke-miterlimit: 10;
      }

      .cls-5 {
        stroke-width: 3px;
      }

      .cls-5, .cls-6 {
        fill: none;
      }

      .cls-6 {
        stroke-width: 2px;
      }

      .cls-3 {
        fill: #f9ed32;
      }

      .cls-4 {
        fill: #fff;
      }
    </style>
  </defs>
  <g id="Bee">
    <path class="cls-5" d="M127.57,83.99v19.39c0,6.05-5.49,9.65-5.49,9.65,0,0-49.66,28.98-52.09,30.38-2.43,1.4-5.46,1.35-5.46,1.35,0,0-3.03.05-5.46-1.35S6.99,113.03,6.99,113.03c0,0-5.49-3.61-5.49-9.65v-60.49c0-6.05,5.49-9.65,5.49-9.65,0,0,49.66-28.98,52.09-30.38s5.46-1.35,5.46-1.35c0,0,3.03-.05,5.46,1.35s52.09,30.38,52.09,30.38c0,0,5.49,3.61,5.49,9.65v41.1Z"/>
    <path class="cls-6" d="M122.27,83.08v17.76c0,5.54-5.03,8.84-5.03,8.84,0,0-45.49,26.54-47.71,27.83-2.22,1.29-5,1.24-5,1.24,0,0-2.78.05-5-1.24s-47.71-27.83-47.71-27.83c0,0-5.03-3.3-5.03-8.84v-55.4c0-5.54,5.03-8.84,5.03-8.84,0,0,45.49-26.54,47.71-27.83s5-1.24,5-1.24c0,0,2.78-.05,5,1.24,2.22,1.29,47.71,27.83,47.71,27.83,0,0,5.03,3.3,5.03,8.84v37.65Z"/>
    <g>
      <path class="cls-1" d="M29.7,43.73l6.18,6.63.21.22c-.39,2.84-.92,5.9-.47,8.74,0,0-1.18.31-1.18.31-.33-1.58-.18-3.02-.09-4.57.12-1.48.31-2.93.54-4.39l.16.5-6.47-6.35,1.12-1.09h0Z"/>
      <path class="cls-1" d="M21.93,53.94c.12-.63.14-.41.45-.46,1.03-.05,2.13-.1,3.16-.1,1.37,0,2.75.03,4.11.19,0,0,.17.37.17.37l3.57,7.66-1.08.53-3.84-7.53.68.42c-2.24.2-4.51.15-6.76.04,0,0-.23-.01-.23-.01-.25.09-.23-.88-.23-1.11h0Z"/>
      <path class="cls-2" d="M28.51,73.13c-2.06-2.29,4.23-13.7,8.05-16.47,3.15-2.29,6.72.5,7.28,3.66.61,3.44-2.07,5.87-3.84,8.52-.69.96-1.31,1.59-2.26,2.28-1.45,1.15-3.56,1.99-5.32,2.44-.29.08-1.22.53-2.25.46-.8-.06-1.66-.9-1.66-.9Z"/>
      <path class="cls-2" d="M39.1,70.26c1.2,3.62,3.75,7.77,7.62,8.97,1.51.46,3.08.61,4.61,1,2.48.66,5.04,1.7,7.65,1.36,1.02-.03,1.81.1,2.57-.34,1.18-.83,2.25-2.22,3.1-3.36,2.88-4.19-.88-5.32-3.11-8.05-.71-1.21-1.02-3.04-1.52-4.27-1.12-2.24-2.41-4.66-4.48-6.21-2.44-1.3-6.49-2.27-9.01-.39-2.13,1.5-3.22,2.42-4.43,5.05-.82,1.78-2.84,4.48-3.01,6.07l.02.16Z"/>
      <path class="cls-2" d="M89.33,107.18c.12-.1.18-.26.27-.43.34-.67.61-1.37.82-2.09.43-1.43.64-3.77.78-5.25.26-2.72.28-4.67-.49-7.3-.96-3.29-3.09-6.11-5.27-8.76-1.52-1.85-3.11-3.67-5.03-5.11-2.97-2.21-6.59-3.35-10.22-3.87-1.47-.21-3.89-.85-4.94.16-1.31,1.25-2.21,3.88-3.11,5.47-.29.51-.59,1.03-.77,1.6-.45,1.41-.13,2.94.29,4.36,1.78,5.96,5.47,11.33,10.39,15.12,2.33,1.8,4.93,3.24,7.69,4.27,2.77,1.04,5.69,1.68,8.64,1.87.23.02.47.08.71.06.11,0,.18-.04.24-.09Z"/>
      <path class="cls-3" d="M62.38,84.08c-.1.35.13.94.32,1.68.27.8.23,1.4.61,1.2,1.41-1.31,3.37-3.14,4.68-4.62,1.26-1.56,2.41-3.64,2.85-4.8.17-.54.6-1.46.45-1.71-.42-.36-1.22-.12-1.86-.19-.5,0-.85,0-1.05.09-.59.43-.97,1.59-1.75,2.79-.88,1.77-3.03,3.86-4.2,5.4l-.06.16Z"/>
      <path class="cls-3" d="M75.25,77c-.1,0-.16.03-.2.09-.25.98-.56,2.67-1.2,3.93-1.48,3.57-5.48,6.81-7.95,9.13-.25.28-.25.5-.13.99.46,1.17.7,3.03,1.78,1.8,4.35-3.62,8.34-7.87,10.45-13.27.3-.69.52-1.04.19-1.35-.4-.38-2.09-1.1-2.83-1.31h-.11Z"/>
      <path class="cls-3" d="M69.57,96.09c-.16.68,1.17,2.11,1.59,2.56.24.13.51-.15,1.13-.45,1.69-.92,5.13-3.04,7.15-5.58,1.05-1.31,1.71-2.51,2.55-3.99.83-1.53,1.69-3.17,2.14-4.38,0-.21-.06-.31-.22-.53-.49-.59-1.36-2-1.86-2.26-.18-.01-.31.41-.63.98-1.16,2.17-2.6,4.99-3.99,6.69-1.38,1.74-4.74,4.46-7.8,6.81l-.08.16Z"/>
      <path class="cls-3" d="M75.12,101.43c.54.36,2.96.68,3.16,1.61.11.51,1.75-1.11,5.91-4.74,2.27-1.98,4.31-6.17,4.46-8.53-.25-.76-1.16-2.26-1.74-2.66-.06,0-.11.04-.15.12-.45,1.68-2.7,6.04-4.6,7.62-1.12,1.12-2.81,2.63-4.1,3.73-1.54,1.48-3.17,2.19-3,2.76l.07.08Z"/>
      <path class="cls-3" d="M43.02,69.7c.69.8,1.24-.31,1.32-1.02.17-1.56.8-3.02,1.61-4.37,1.74-2.69,5.57-3.74,8.45-2.35.64.3,1.88.8,2.11-.08.08-1.56-2.04-2.26-3.37-2.68-2.03-.68-4.08-.62-5.96.31-1.47.71-2.56,1.84-3.17,3.35-.85,2.38-2.37,4.51-1.12,6.69l.12.14Z"/>
      <path class="cls-3" d="M51.45,74.21c-.48-.41-2.16-1.9-2.48-2.8-.49-.73-.77-2.56-1.95-1.89-.75.66-.58,1.64-.63,2.52.04.44.27.47.72,1.05.83.88,1.11,1.51,2.03,2.24.76.54,1.68.49,2.52.48.62,0,.85-.07,1.29-.06.21-.02,1.06.12,1.25.02.71-.6-.2-1.71-.94-1.79-.6-.09-1.24.2-1.75.24h-.06Z"/>
      <path class="cls-3" d="M50.53,77.36c-.22-.21-.56-.29-1.01-.42-1.16-.39-1.81-.78-2.61-1.44-1.2-1.14-3.02-3.84-3.29-.63-.07,1.47,1.58,1.92,2.55,2.66,1.14.86,2.49,1.25,3.89.86.34-.06.65-.12.86-.17.32-.07.36-.05.23-.19-.13-.13-.32-.37-.5-.58l-.1-.1Z"/>
      <path class="cls-3" d="M30.27,72.6c.43.25,1.06.24,1.59.14,4.16-.99,6.86-3.44,9.51-6.38,1.7-2.7,2.41-8.5-1.82-9.02-2.26-.43-3.62.66-5.24,2.65-1.54,1.7-2.48,3.4-3.44,5.6-.81,1.91-2.41,5.02-.74,6.92l.14.09Z"/>
      <path class="cls-2" d="M39.6,58.67c3.46,2.77,0,7.42-2.71,9.31-2.2,1.77-3.07,2.84-5.18,3.25-1.94-.15-.39-3.46.11-4.83,1.1-2.49,2.16-4.63,4.28-6.25,1.12-.89,1.99-1.88,3.33-1.56l.17.07Z"/>
      <path class="cls-4" d="M35.84,64.43c.95-.78,3.97-2.89,3.11-4.31-1.03-.93-5.58,4.79-3.27,4.39l.16-.09Z"/>
      <path class="cls-2" d="M52.3,66.42l16.4-11.48s13.56-7.91,14.4-8.24,8.07-3.5,9.32-3.91,6.49-1.66,6.49-1.66c0,0,7.99-.58,8.41-.5s1.17-.25,1.25.33-.08,1.08,0,1.66.02,5.24.02,5.24c0,0-.11,3-.77,4.49s-6.16,9.98-6.16,9.98l-2.66,3.42s-6.16,7.35-15.23,8.29-16.89-2.39-16.89-2.39l-6.99-1.83-4.24-2-1.08-.17-.92.75-1.34-.25v-1.75Z"/>
      <path class="cls-2" d="M55.78,56.39c-.02-.08-.02-.16-.01-.24.06-.65,1.27-1.69,1.67-2.2,1.3-1.64,2.61-3.27,3.92-4.91,2.5-3.12,5.02-6.24,7.54-9.35,2.04-2.51,4.09-5.02,6.34-7.34,1.59-1.64,3.28-3.19,5.06-4.63.62-.51,1.38-1.03,2.17-.85.64.15,1.08.72,1.46,1.25,1.46,2.03,2.99,4.25,3.02,6.75.03,2.65-1.64,5.23-1.03,7.81-8.56,3.69-16.56,8.65-23.68,14.67-1.09.92-2.44,1.93-3.79,1.48-.5-.16-.91-.51-1.29-.86-.43-.4-1.23-.96-1.36-1.58Z"/>
      <path class="cls-1" d="M29.99,91.3c.55-1.79,1.31-3.45,2.15-5.09.26-.55.56-1.09,1.25-1.38l-.08.2c-.4-.37-.25-.62-.21-.9.25-.81.68-1.59.43-2.46,0,0,.39-.65.39-.65.28-.65.91-.89,1.5-1.18.66-.31,1.4-.56,2.18-.7.47-.36,1.6-.39,2.23-.56.36-.06.71-.06,1.05,0,.34.05.69.07.87,1.16l-.26.07c-.34-.83-.23-1.13-.07-1.36.28-.52.71-.85,1.28-1.03.26-.12.57-.16,1.31.28l.42.5c.31.8.21,1.1.05,1.33-.28.52-.67.89-1.24,1.07-.24.18-.85.05-1.49-.41,0,0-.09.18-.09.18-.5.98-.84.9-1.18.84-.62-.04-1.43-.54-1.97-.83-.32-.17-.66-.27-.95-.64l.26-.08c-.25.69-.56,1.29-.92,1.85-.37.54-.7,1.14-1.38,1.32l.39-.65c-.4.47-.51,1-.57,1.58-.04.28-.03.56-.08.83-.09.27-.05.56-.57.72-.15.04-.09.02-.08.2.08.75-.25,1.27-.61,1.76-1.04,1.53-2.12,3-3.42,4.35,0,0-.56-.33-.56-.33h0Z"/>
      <path class="cls-1" d="M46.77,106.34c.47-2.42,1.1-5.08,1.69-7.48.21-.82.35-1.67.83-2.41v.53c-.02-1.63-.39-3.18-1.13-4.64,0,0,0-.39,0-.39.04-2.04.3-4.09,1.37-5.87.79-.87,1.82-1.75,3.14-1.64,0,0-.13.26-.13.26-.68-1.31-.86-2.61-.78-4,.05-.44.11-.89.78-1.33h.65c1.06.75.81,1.66.76,2.67-.14.95-.28,1.97-.89,2.88-.28,1.28-1.31,1.91-2.34,2.45,0,0,.35-.53.35-.53.08.98-.1,1.9-.34,2.81-.24.91-.52,1.81-.94,2.67v-.39c.07,1.63.53,3.17,1.33,4.59,0,0-.02.51-.02.51-.13,1.51-1.19,3.39-1.67,4.82-.65,1.57-1.31,3.15-2.02,4.7l-.62-.2h0Z"/>
      <path class="cls-1" d="M62.79,110.44c-2.32-3.33-5.47-10.05-2.9-13.87,0,0-.04.38-.04.38-.21-1.41-.42-2.83-.77-4.21-.35-.84-.45-1.67-.06-2.58,0,0,.07.21.07.21-.74-.64-1.05-1.5-1.54-2.3-.59-.88-1.27-1.53-.66-2.75-.8-1.65-1.48-3.32-1.36-5.13,0-.24.08-.49.88-.8l.65-.05c.84.18.95.41.99.65.22.71.18,1.44.09,2.18-.1.98-.2,1.96-.63,2.97l-.03-.12c1.35.22,1.48,1.15,1.84,2.15.36.87.88,1.62.96,2.6,0,0,.07.21.07.21.91,1.01.58,2.17.69,3.36.1,1.19.22,2.38.39,3.57l-.06.22c.15,1.14-.24,2.06-.25,3.19-.2,3.36.82,6.76,2.23,9.8,0,0-.55.34-.55.34h0Z"/>
      <path class="cls-4" d="M58.97,57c.29.06.61-.12.85-.31.72-.68,2.29-2.34,4.41-4.51,4.22-4.35,10.62-10.94,14.82-15.26,1.99-2.31,3.38-2.87,3.76-4.38-.03-.88-.53-3.97-1.28-3.15-2.7,2.96-20.15,22.28-23.1,25.56-.69.65-.41,1.76.46,2.04l.09.02Z"/>
      <path class="cls-4" d="M74.54,44.34c1.41-.97,7.79-6.23,9.31-7.44.58-.32.75-2.8.61-2.9-1.27.77-4.79,3.99-6.14,5.14-.76.96-3.4,4.58-3.79,5.18v.02Z"/>
      <path class="cls-4" d="M72.05,48.44c2.07-2.51,6.87-5.61,9.61-7.98,1.4-1.36,2.72.18,1.64,1.83-2.33,1.95-6.98,4.15-9.57,5.78-.45.18-1.5.87-1.7.44l.02-.07Z"/>
      <path class="cls-4" d="M63.13,54.83c1.26-1.37,3.85-4.06,5.35-5.68,1.25-1.24,2.04-2.46,2.02-1.71-.09.94-.09,2.09-.7,2.83-1.44,1.15-5.14,3.61-6.68,4.59v-.03Z"/>
      <path class="cls-4" d="M55.32,66.59c-.5-.08.04-.73,1.59-1.87,2.23-1.61,5.57-3.62,8.29-5.32,9.72-6.05,21.94-13.25,31.53-15.58,1.76-.6,12.02-2.12,7,1.52-7.17,4-15.93,5.73-23.33,9.56-8.55,3.57-16.81,9.41-25.03,11.7h-.05Z"/>
      <path class="cls-4" d="M69.62,61.71c.59-.64,5.17-2.5,6.68-3.27,2.78-1.14,5.8-3.18,8.61-2.49,1.55.36,5.43.54,4.19,2.96-1.71,2.81-4.11,3.95-7.5,4.48-2.52.41-5.72,1.57-8.03.76-.99-.31-1.14-1.18.12-1.67,2.05-.74,5.05-.79,7.19-1.83,1.37-.49,2.92-1.78.37-1.36-3.78.76-7.67,2.07-11.58,2.43h-.05Z"/>
      <path class="cls-4" d="M62.75,66.06c.93.82,7.73-.38,8.9.98,1.68,2.92-8.41.37-9.61.46-1.8.06-.72,1.1.3,1.51,3.2,1.33,6.56,1.42,10.08,1.99,3.72.44,7.69,1.05,11.67.52.93-.05,4.18-1.49,2.42-2.35-1.67-.55-3.96-.49-5.72-.78-4.65-.54-8.38-4.17-13.24-3.5-1.42.06-4.34-.24-4.84,1.11l.05.06Z"/>
      <path class="cls-4" d="M78.85,65.97c24.1,5.52,22.4-8.32,0,.42"/>
      <path class="cls-4" d="M90.27,61.38c1.94.46,4.65.6,6.38.65,1.67.04,3.35-.54,3.95-2.11.61-1.92-5.33-.64-6.45-1.43-.62-.27-.57-.7-.02-1.02,2.4-1.44,9.69,1.17,9.43-2.73-.1-.28-.31-.51-.6-.69-2.8-1.58-5.94.55-8.66.09-3.65-1.58,10.05-1.83,10.13-2.67.59-.45.59-1.3.32-1.95-.71-1.42-2.78-.56-4.01-.28-4.13,1.2-8.3,2.61-12.3,4.13-.23.14-.31.32-.19.55,1.78,1.8,3.82,2.21,2.03,5.51-.24.64-.78,1.48-.14,1.88l.14.06Z"/>
    </g>
  </g>
</svg>