<?xml version="1.0" encoding="UTF-8"?>
<svg id="Layer_2" data-name="Layer 2" xmlns="http://www.w3.org/2000/svg" viewBox="0 0 243.06 152.98">
  <defs>
    <style>
      .cls-1, .cls-2, .cls-3, .cls-4, .cls-5 {
        stroke: #231f20;
        stroke-miterlimit: 10;
      }

      .cls-1, .cls-3 {
        stroke-width: 2px;
      }

      .cls-1, .cls-3, .cls-4, .cls-5 {
        fill: none;
      }

      .cls-1, .cls-4, .cls-5 {
        stroke-linecap: round;
      }

      .cls-6, .cls-2, .cls-7, .cls-8 {
        fill: #231f20;
      }

      .cls-6, .cls-9, .cls-10 {
        stroke-width: 0px;
      }

      .cls-2 {
        stroke-width: .5px;
      }

      .cls-4, .cls-5 {
        stroke-width: 1.7px;
      }

      .cls-11, .cls-5 {
        opacity: .96;
      }

      .cls-9 {
        fill: #f9ed32;
      }

      .cls-7 {
        font-size: 26px;
      }

      .cls-7, .cls-8 {
        font-family: PoorRichard-Regular, 'Poor Richard';
        letter-spacing: .04em;
      }

      .cls-8 {
        font-size: 16px;
      }

      .cls-10 {
        fill: #fff;
      }
    </style>
  </defs>
  <g id="Lines">
    <path class="cls-1" d="M121.15,9.07h-2.91c-1.7,0-5.45,2.55-5.45,2.55,0,0-5.15,2.96-12.21,7.03"/>
    <path class="cls-1" d="M90.26,24.61c-13.52,7.8-28.35,16.4-29.72,17.31-2.55,1.7-3.74,8-3.74,8v17.59c0,1.38,1.12,2.5,2.5,2.5h121.85c1.38,0,2.5-1.12,2.5-2.5v-17.59s-1.19-6.3-3.74-8c-1.3-.87-14.82-8.7-27.78-16.19"/>
    <path class="cls-3" d="M122.2,104.56h58.95c1.38,0,2.5,1.12,2.5,2.5v3.97s-.61,5.71-3.95,7.99-54.87,32.15-54.87,32.15c0,0-1.55.81-2.63.81h-3.96c-1.07,0-2.63-.81-2.63-.81,0,0-51.53-29.87-54.87-32.15s-3.95-7.99-3.95-7.99v-3.97c0-1.38,1.12-2.5,2.5-2.5h62.9Z"/>
    <g class="cls-11">
      <g>
        <path class="cls-4" d="M90.53,30.53c-12.38,7.22-25.23,14.74-26.4,15.49-2.3,1.47-1.91,3.96-1.91,3.96v14.77c0,.55.45,1,1,1h29.7"/>
        <circle class="cls-6" cx="92.92" cy="65.74" r="1.53"/>
      </g>
    </g>
    <path class="cls-5" d="M114.11,16.78s-3.74,2.18-9.18,5.35"/>
    <g>
      <path class="cls-4" d="M149.26,30.15c12.57,7.34,25.86,15.11,27.04,15.86,2.3,1.47,1.91,3.96,1.91,3.96v14.77c0,.55-.45,1-1,1h-29.7"/>
      <circle class="cls-6" cx="147.51" cy="65.74" r="1.53" transform="translate(-11.16 35.65) rotate(-13.28)"/>
    </g>
    <path class="cls-4" d="M128.94,109.23h48.58c.54,0,1,.43,1,.98,0,1.39-.28,3.93-2.34,5.28-2.94,1.91-52.6,30.64-52.6,30.64,0,0-1.89.77-3.12.64h-.5c-1.22.13-3.12-.64-3.12-.64,0,0-49.66-28.72-52.6-30.64-2.06-1.34-2.35-3.88-2.34-5.28,0-.54.46-.98,1-.98h48.58"/>
    <path class="cls-4" d="M117.53,142.25h5.11-5.11Z"/>
    <polyline class="cls-4" points="133.88 134.46 120.09 134.46 106.3 134.46"/>
    <polyline class="cls-4" points="128.51 138.29 120.09 138.29 111.67 138.29"/>
    <g>
      <line class="cls-1" x1="84.36" y1="45.33" x2="75.08" y2="45.33"/>
      <line class="cls-1" x1="87.06" y1="49.11" x2="72.38" y2="49.11"/>
      <line class="cls-1" x1="89.12" y1="52.99" x2="70.31" y2="52.99"/>
      <line class="cls-1" x1="87.4" y1="56.82" x2="72.04" y2="56.82"/>
      <line class="cls-1" x1="84.63" y1="60.52" x2="74.8" y2="60.52"/>
      <line class="cls-1" x1="75.08" y1="45.33" x2="84.36" y2="45.33"/>
      <line class="cls-1" x1="72.38" y1="49.11" x2="87.06" y2="49.11"/>
      <line class="cls-1" x1="70.31" y1="52.99" x2="89.12" y2="52.99"/>
      <line class="cls-1" x1="72.04" y1="56.82" x2="87.4" y2="56.82"/>
      <line class="cls-1" x1="74.8" y1="60.52" x2="84.63" y2="60.52"/>
    </g>
    <g>
      <line class="cls-1" x1="164.73" y1="45.39" x2="155.46" y2="45.39"/>
      <line class="cls-1" x1="167.44" y1="49.18" x2="152.76" y2="49.18"/>
      <line class="cls-1" x1="169.5" y1="53.05" x2="150.69" y2="53.05"/>
      <line class="cls-1" x1="167.78" y1="56.88" x2="152.41" y2="56.88"/>
      <line class="cls-1" x1="165.01" y1="60.58" x2="155.18" y2="60.58"/>
      <line class="cls-1" x1="155.46" y1="45.39" x2="164.73" y2="45.39"/>
      <line class="cls-1" x1="152.76" y1="49.18" x2="167.44" y2="49.18"/>
      <line class="cls-1" x1="150.69" y1="53.05" x2="169.5" y2="53.05"/>
      <line class="cls-1" x1="152.41" y1="56.88" x2="167.78" y2="56.88"/>
      <line class="cls-1" x1="155.18" y1="60.58" x2="165.01" y2="60.58"/>
    </g>
  </g>
  <g id="Bee">
    <path class="cls-6" d="M92.74,13.21l4.74,5.09.16.17c-.3,2.18-.71,4.53-.36,6.7,0,0-.9.24-.9.24-.4-2.32.05-4.58.34-6.87,0,0,.12.38.12.38l-4.96-4.87.86-.84h0Z"/>
    <path class="cls-6" d="M86.78,21.04c.09-.48.11-.32.35-.36.79-.04,1.63-.08,2.42-.07,1.05-.01,2.1.04,3.15.14,0,0,.14.29.14.29l2.74,5.87-.83.41-2.95-5.77.52.32c-1.72.15-3.46.12-5.19.03,0,0-.17,0-.17,0-.19.07-.18-.68-.17-.85h0Z"/>
    <path class="cls-2" d="M91.74,35.97c-.94-3.62,3.34-10.71,6.27-12.84,2.42-1.76,5.15.39,5.59,2.81.47,2.64-1.59,4.5-2.95,6.54-.53.74-1.01,1.22-1.73,1.75-1.12.88-2.73,1.53-4.08,1.87-1.37.39-2.17.73-3.03-.05l-.07-.08Z"/>
    <path class="cls-2" d="M99.95,33.56c.92,2.77,2.87,5.96,5.85,6.88,1.16.35,2.36.47,3.53.77,1.9.5,3.86,1.3,5.86,1.04.78-.03,1.39.08,1.97-.26.91-.63,1.73-1.7,2.38-2.58,2.21-3.21-.68-4.08-2.39-6.17-.54-.93-.79-2.33-1.16-3.28-.86-1.72-1.85-3.58-3.44-4.76-1.87-1-4.98-1.74-6.91-.3-1.64,1.15-2.47,1.86-3.4,3.87-.63,1.37-2.18,3.44-2.31,4.65v.12Z"/>
    <path class="cls-2" d="M138.48,61.88c.09-.07.14-.2.2-.33.26-.51.47-1.05.63-1.6.33-1.1.49-2.89.6-4.03.2-2.09.21-3.59-.37-5.6-.74-2.53-2.37-4.69-4.04-6.72-1.17-1.42-2.39-2.82-3.86-3.92-2.28-1.7-5.05-2.57-7.84-2.97-1.13-.16-2.99-.65-3.79.12-1.01.96-1.69,2.97-2.39,4.19-.22.39-.45.79-.59,1.22-.34,1.08-.1,2.26.22,3.34,1.36,4.57,4.19,8.69,7.97,11.6,1.79,1.38,3.78,2.48,5.9,3.28s4.36,1.29,6.63,1.44c.18.01.36.06.54.04.08,0,.14-.03.19-.07Z"/>
    <path class="cls-9" d="M117.81,44.16c-.08.27.1.72.24,1.29.21.61.18,1.07.47.92,1.08-1.01,2.59-2.41,3.59-3.55.97-1.2,1.85-2.79,2.19-3.68.13-.42.46-1.12.34-1.31-.32-.28-.93-.09-1.43-.14-.38,0-.65,0-.81.07-.45.33-.74,1.22-1.34,2.14-.67,1.35-2.33,2.96-3.22,4.14l-.04.12Z"/>
    <path class="cls-9" d="M127.68,38.73c-.07,0-.12.02-.15.07-.19.75-.43,2.05-.92,3.01-1.13,2.74-4.21,5.23-6.1,7-.19.22-.19.38-.1.76.35.9.54,2.32,1.37,1.38,3.34-2.78,6.4-6.03,8.01-10.18.23-.53.4-.8.15-1.04-.31-.29-1.6-.84-2.17-1h-.08Z"/>
    <path class="cls-9" d="M123.32,53.37c-.12.52.9,1.62,1.22,1.96.18.1.39-.12.87-.35,1.3-.71,3.93-2.34,5.48-4.28.81-1,1.31-1.92,1.95-3.06.64-1.17,1.3-2.43,1.64-3.36,0-.16-.05-.23-.17-.41-.37-.45-1.04-1.53-1.42-1.73-.14,0-.24.31-.48.75-.89,1.67-2,3.83-3.06,5.13-1.06,1.34-3.63,3.42-5.98,5.22l-.06.13Z"/>
    <path class="cls-9" d="M127.59,57.47c.41.27,1.69,1.19,2.43,1.24,1.03-.41,2.86-2.13,4.53-3.63,1.67-1.59,3.3-4.73,3.42-6.54-.19-.59-.89-1.74-1.34-2.04-.05,0-.08.03-.12.09-.34,1.29-2.07,4.63-3.53,5.85-.86.86-2.15,2.02-3.15,2.86-1.18,1.13-2.43,1.68-2.3,2.12l.06.06Z"/>
    <path class="cls-9" d="M102.96,33.13c.53.61.95-.24,1.02-.78.13-1.2.61-2.31,1.24-3.35,1.34-2.07,4.28-2.87,6.48-1.8.49.23,1.44.61,1.62-.06.06-1.19-1.56-1.73-2.58-2.05-1.56-.52-3.13-.48-4.57.24-1.13.54-1.96,1.41-2.43,2.57-.65,1.83-1.82,3.46-.86,5.13l.09.11Z"/>
    <path class="cls-9" d="M109.43,36.59c-.37-.32-1.65-1.46-1.9-2.15-.37-.56-.59-1.96-1.5-1.45-.57.5-.45,1.26-.48,1.93.03.34.2.36.55.81.63.68.85,1.15,1.55,1.72.58.41,1.29.37,1.93.37.47,0,.65-.05.99-.04.16-.01.82.1.96.01.55-.46-.15-1.31-.72-1.37-.46-.07-.95.15-1.34.18h-.04Z"/>
    <path class="cls-9" d="M108.72,39c-.17-.16-.43-.22-.78-.32-.89-.3-1.39-.6-2-1.11-.92-.87-2.32-2.95-2.52-.48-.05,1.13,1.21,1.47,1.95,2.04.88.66,1.91.96,2.98.66.26-.05.5-.1.66-.13.24-.05.27-.04.17-.14-.1-.1-.24-.28-.38-.44l-.08-.08Z"/>
    <path class="cls-9" d="M93.18,35.35c.33.19.82.18,1.22.11,3.19-.76,5.26-2.64,7.3-4.89,1.31-2.07,1.85-6.52-1.39-6.92-1.74-.33-2.78.51-4.02,2.03-1.18,1.3-1.9,2.6-2.64,4.3-.62,1.46-1.85,3.85-.57,5.31l.11.07Z"/>
    <path class="cls-2" d="M100.34,24.66c2.66,2.12,0,5.69-2.08,7.14-1.69,1.36-2.35,2.18-3.97,2.5-1.49-.11-.3-2.65.08-3.7.84-1.91,1.66-3.55,3.28-4.79.86-.68,1.53-1.44,2.55-1.2l.13.05Z"/>
    <path class="cls-10" d="M97.45,29.08c.73-.6,3.05-2.22,2.38-3.3-.79-.71-4.28,3.67-2.51,3.37l.12-.07Z"/>
    <path class="cls-2" d="M110.08,30.61l12.58-8.81s10.4-6.06,11.04-6.32,6.19-2.68,7.15-3,4.98-1.28,4.98-1.28c0,0,6.13-.45,6.45-.38s.89-.19.96.26-.06.83,0,1.28.02,4.02.02,4.02c0,0-.08,2.3-.59,3.45s-4.72,7.66-4.72,7.66l-2.04,2.62s-4.72,5.64-11.68,6.36-12.96-1.83-12.96-1.83l-5.36-1.4-3.26-1.53-.83-.13-.7.57-1.02-.19v-1.34Z"/>
    <path class="cls-2" d="M112.75,22.92c-.01-.06-.02-.12-.01-.18.05-.5.97-1.3,1.28-1.68,1-1.26,2-2.51,3-3.76,1.92-2.4,3.85-4.79,5.78-7.17,1.56-1.93,3.14-3.85,4.86-5.63,1.22-1.26,2.52-2.45,3.88-3.55.48-.39,1.06-.79,1.66-.65.49.11.83.55,1.12.96,1.12,1.56,2.29,3.26,2.31,5.18.02,2.03-1.26,4.01-.79,5.99-6.56,2.83-12.7,6.64-18.16,11.25-.83.7-1.87,1.48-2.91,1.14-.38-.13-.7-.39-.99-.66-.33-.3-.94-.74-1.04-1.21Z"/>
    <path class="cls-6" d="M92.97,49.69c.43-1.37,1-2.65,1.65-3.91.2-.42.43-.83.96-1.06l-.06.15c-.31-.29-.19-.48-.16-.69.19-.62.52-1.19.33-1.89,0,0,.3-.5.3-.5.5-.9,1.86-1.2,2.82-1.45.49-.32,1.18-.29,1.71-.43.28-.04.54-.04.81,0,.26.04.53.06.67.89l-.2.06c-.26-.63-.18-.86-.05-1.04.22-.4.55-.65.98-.79.2-.09.44-.13,1,.22l.32.38c.24.61.16.84.04,1.02-.21.4-.52.68-.95.82-.17.14-.67.03-1.14-.32-.32.72-.66.88-.98.78-.47-.04-1.1-.41-1.51-.63-.25-.14-.5-.21-.73-.5l.2-.06c-.41.91-.81,2.05-1.77,2.43,0,0,.3-.5.3-.5-.31.37-.4.78-.43,1.21-.1.44.09.98-.51,1.19-.11.03-.06.03-.06.15.06.58-.19.97-.47,1.35-.79,1.18-1.63,2.3-2.62,3.33,0,0-.43-.25-.43-.25h0Z"/>
    <path class="cls-6" d="M105.84,61.23c.36-1.85.84-3.9,1.3-5.74.16-.63.27-1.28.63-1.85v.4c-.02-1.25-.3-2.44-.86-3.56,0,0,0-.3,0-.3.05-1.6.22-3.28,1.16-4.63.64-.63,1.29-1.19,2.3-1.13,0,0-.1.2-.1.2-.52-1-.66-2-.6-3.07.04-.34.09-.68.6-1.02,1.8-.25,1.04,3.19.5,4.09,0,0-.1.16-.1.16-.09.58-.42.89-.74,1.18-.32.28-.65.53-1.05.7l.27-.4c.06,1.48-.39,2.86-.98,4.2,0,0,0-.3,0-.3.01.63.14,1.22.31,1.81.18.59.39,1.17.72,1.71.03.81-.28,1.55-.58,2.27-.7,1.77-1.49,3.71-2.27,5.43,0,0-.48-.15-.48-.15h0Z"/>
    <path class="cls-6" d="M118.13,64.38c-1.81-2.65-4.19-7.59-2.23-10.64,0,0-.03.29-.03.29-.16-1.08-.32-2.17-.59-3.23-.27-.65-.35-1.28-.05-1.98,0,0,.05.16.05.16-.57-.49-.8-1.15-1.18-1.76-.46-.67-.97-1.17-.5-2.11-.61-1.27-1.13-2.54-1.04-3.93,0-.19.07-.38.67-.61l.5-.04c.63.14.74.32.76.5.28,1.32.03,2.64-.42,3.95,0,0-.03-.09-.03-.09.6.09.84.36,1.02.66.46,1.18,1.05,2.21,1.13,2.97,0,0,.05.16.05.16.32.4.46.82.52,1.25-.06,1.36.14,2.71.31,4.06,0,0-.05.17-.05.17.12.88-.18,1.58-.19,2.44-.16,2.57.63,5.18,1.71,7.51,0,0-.42.26-.42.26h0Z"/>
    <path class="cls-10" d="M115.2,23.39c.23.05.47-.09.65-.24.55-.52,1.75-1.8,3.38-3.46,3.24-3.34,8.14-8.39,11.37-11.71,1.52-1.77,2.59-2.2,2.88-3.36-.02-.67-.41-3.05-.98-2.42-2.07,2.27-15.46,17.09-17.72,19.6-.53.5-.31,1.35.35,1.57l.07.02Z"/>
    <path class="cls-10" d="M127.14,13.67c1.08-.75,5.98-4.78,7.14-5.71.44-.24.58-2.15.47-2.22-.98.59-3.67,3.06-4.71,3.94-.59.74-2.6,3.51-2.9,3.97h0Z"/>
    <path class="cls-10" d="M125.23,16.82c1.59-1.92,5.27-4.3,7.37-6.12,1.07-1.04,2.08.14,1.26,1.4-1.79,1.49-5.35,3.19-7.34,4.43-.35.14-1.15.67-1.3.34v-.05Z"/>
    <path class="cls-10" d="M118.39,21.72c.97-1.05,2.95-3.11,4.1-4.35.96-.95,1.57-1.89,1.55-1.31-.07.72-.07,1.6-.54,2.17-1.11.88-3.94,2.77-5.12,3.52v-.02Z"/>
    <path class="cls-10" d="M112.4,30.74c-.38-.06.03-.56,1.22-1.43,1.71-1.24,4.27-2.78,6.36-4.08,7.46-4.64,16.83-10.16,24.19-11.95,1.35-.46,9.22-1.62,5.37,1.16-5.5,3.07-12.22,4.4-17.89,7.33-6.56,2.74-12.89,7.22-19.2,8.98h-.04Z"/>
    <path class="cls-10" d="M123.36,27c.45-.49,3.96-1.91,5.12-2.51,2.13-.88,4.45-2.44,6.61-1.91,1.19.28,4.17.41,3.22,2.27-1.31,2.16-3.15,3.03-5.75,3.44-1.93.32-4.39,1.2-6.16.58-.76-.23-.88-.9.09-1.28,1.57-.57,3.87-.6,5.51-1.4,1.05-.38,2.24-1.37.28-1.04-2.9.58-5.89,1.59-8.88,1.86h-.04Z"/>
    <path class="cls-10" d="M118.1,30.33c.71.63,5.93-.29,6.82.75,1.29,2.24-6.45.29-7.37.35-1.38.05-.55.85.23,1.16,2.46,1.02,5.03,1.09,7.73,1.53,2.85.34,5.9.81,8.95.4.72-.04,3.2-1.14,1.86-1.8-1.28-.42-3.04-.38-4.39-.6-3.56-.42-6.43-3.2-10.16-2.68-1.09.04-3.33-.19-3.71.85l.04.05Z"/>
    <path class="cls-10" d="M130.44,30.27c18.48,4.23,17.18-6.38,0,.32"/>
    <path class="cls-10" d="M139.2,26.75c1.49.36,3.57.46,4.89.5,1.28.03,2.57-.41,3.03-1.62.47-1.48-4.09-.49-4.94-1.1-.47-.2-.44-.54-.02-.78,1.84-1.1,7.43.9,7.23-2.09-.07-.22-.24-.39-.46-.53-2.15-1.21-4.56.43-6.64.07-2.8-1.21,7.71-1.4,7.77-2.05.45-.34.46-1,.24-1.49-.55-1.09-2.13-.43-3.07-.21-3.17.92-6.37,2-9.43,3.17-.17.11-.24.24-.15.42,1.36,1.38,2.93,1.69,1.55,4.22-.19.49-.6,1.14-.11,1.44l.11.05Z"/>
  </g>
  <g id="Letter">
    <text class="cls-7" transform="translate(7.04 97.5)"><tspan x="0" y="0">TREES BEES &amp; SEAS</tspan></text>
    <text class="cls-8" transform="translate(96.53 128)"><tspan x="0" y="0">T B &amp;S</tspan></text>
  </g>
</svg>